<svg width="357" height="53" viewBox="0 0 357 53" fill="none" xmlns="http://www.w3.org/2000/svg">
<path fill-rule="evenodd" clip-rule="evenodd" d="M148.923 42.9063V10.0937H153.769L155.923 12.828L159.692 10.0937L164 9V14.4687L159.692 17.7499L164 22.125V28.6874H161.846L155.923 25.4063L164 34.1562V41.2657L158.615 44L155.923 41.2657L153.769 42.9063H148.923ZM112.308 43.4532V10.0939H126.846V43.4532H123.077L117.692 40.7189V43.4532H112.308ZM130.616 43.4532V10.0939H136L138.154 17.7501L139.77 10.0939H145.154V43.4532H138.154L136 40.7189L134.385 43.4532H130.616ZM94 10.6406L102.077 20.4844L94 17.7499V35.2501C95.0769 36.1615 96.5847 38.422 94 40.1718V43.4531H100.462L102.616 40.7187L104.769 43.4531H108.539V10.6406H94Z" fill="white"/>
<path fill-rule="evenodd" clip-rule="evenodd" d="M236.227 2.15447C236.227 3.34434 235.261 4.30892 234.069 4.30892C232.877 4.30892 231.911 3.34434 231.911 2.15447C231.911 0.964583 232.877 0 234.069 0C235.261 0 236.227 0.964583 236.227 2.15447ZM242.269 10.3413C242.269 11.7692 241.109 12.9266 239.679 12.9266C238.249 12.9266 237.089 11.7692 237.089 10.3413C237.089 8.91341 238.249 7.75596 239.679 7.75596C241.109 7.75596 242.269 8.91341 242.269 10.3413ZM229.32 12.0649C230.274 12.0649 231.047 11.2933 231.047 10.3413C231.047 9.38947 230.274 8.61769 229.32 8.61769C228.367 8.61769 227.594 9.38947 227.594 10.3413C227.594 11.2933 228.367 12.0649 229.32 12.0649ZM245.432 17.5336C247.168 19.825 248.197 22.6789 248.197 25.7727C248.197 33.325 242.064 39.4474 234.499 39.4474C226.934 39.4474 220.802 33.325 220.802 25.7727C220.802 22.6787 221.831 19.8246 223.567 17.5332L208.172 5.17106C207.597 6.89468 208.431 12.2377 211.193 14.6507C212.482 15.7762 213.664 16.7892 214.704 17.6809C215.894 18.7009 216.9 19.5625 217.667 20.2523V23.2685L209.205 16.8051C209.493 18.9596 210.671 23.8024 213.261 25.9568C214.875 27.3003 216.301 28.3193 217.123 28.9076C217.356 29.074 217.54 29.206 217.667 29.3009V32.7481L212.056 28.0083C211.769 30.8809 214.043 36.587 217.064 38.7805C218.977 40.1698 222.219 42.8927 225.554 45.6939C228.839 48.4537 232.215 51.2893 234.5 53C236.785 51.2893 240.161 48.4535 243.446 45.6939C246.781 42.8928 250.023 40.1695 251.936 38.7804C254.957 36.5867 257.231 30.8808 256.944 28.0081L251.333 32.748V29.3008C251.908 28.8698 253.577 27.5772 255.649 25.8537C258.178 23.7492 258.786 19.1779 259.081 16.9589L259.102 16.8049L251.333 23.2682V20.2521C252.1 19.5624 253.105 18.7009 254.296 17.6809L254.298 17.6793C255.337 16.7879 256.519 15.7753 257.807 14.6505C260.569 12.2375 261.403 6.89438 260.828 5.17087L245.432 17.5336ZM234.5 36.195C240.221 36.195 244.858 31.565 244.858 25.8536C244.858 20.1422 240.221 15.5123 234.5 15.5123C228.779 15.5123 224.141 20.1422 224.141 25.8536C224.141 31.565 228.779 36.195 234.5 36.195Z" fill="white"/>
<path fill-rule="evenodd" clip-rule="evenodd" d="M308.776 26.894L331 50L353.224 26.894C358.301 21.6157 358.252 13.2682 353.114 8.04935C347.798 2.65022 339.076 2.65022 333.76 8.04935L331 10.8531L328.24 8.04935C322.924 2.65022 314.202 2.65022 308.886 8.04935C303.748 13.2682 303.699 21.6157 308.776 26.894ZM342.002 24.4373C338.938 24.2861 336.34 23.1021 334.209 20.8852C332.077 18.6685 331.012 16.0242 331.012 12.9525C331.012 16.0242 329.942 18.6685 327.803 20.8852C325.664 23.1021 323.062 24.2861 319.998 24.4373C322.016 24.5282 323.866 25.0994 325.55 26.1511C327.234 27.2027 328.565 28.5947 329.544 30.3274C330.522 32.0599 331.012 33.9401 331.012 35.9677C331.012 32.8808 332.077 30.2252 334.209 28.0009C336.34 25.7765 338.938 24.5887 342.002 24.4373Z" fill="white"/>
<path fill-rule="evenodd" clip-rule="evenodd" d="M46.0318 27C46.0318 38.1509 36.6156 47.1905 25 47.1905C13.3844 47.1905 3.96825 38.1509 3.96825 27C3.96825 15.8491 13.3844 6.80952 25 6.80952C36.6156 6.80952 46.0318 15.8491 46.0318 27ZM50 27C50 40.2548 38.8071 51 25 51C11.1929 51 0 40.2548 0 27C0 13.7452 11.1929 3 25 3C38.8071 3 50 13.7452 50 27ZM21.8253 15.1904L17.4376 11.3293C14.2983 12.6875 11.6524 14.9104 9.8293 17.682L11.9046 21.6667L8.41514 20.3267C7.59486 22.2696 7.14305 24.3937 7.14305 26.6192C7.14305 27.6669 7.24319 28.6923 7.43472 29.6868L13.4919 28.5237L19.0475 19.3809L17.8569 28.5237L10.2407 36.1533C11.069 37.3012 12.0429 38.3449 13.1365 39.26L13.0951 39.1904L17.4601 35.7619L15.1915 40.7399C17.9075 42.4117 21.1375 43.3811 24.6033 43.3811C28.9051 43.3811 32.8436 41.8877 35.8868 39.4113L33.3332 36.1428L23.8094 35L32.5396 32.3333L32.9364 27.3809L28.5712 17.8571L35.7142 27V31.9523L40.0031 34.5257C41.3179 32.1704 42.0636 29.4784 42.0636 26.6192C42.0636 22.7968 40.731 19.2733 38.4872 16.4535L34.9206 20.9047L36.7508 14.5789C33.6081 11.6561 29.3246 9.85733 24.6033 9.85733C24.4706 9.85733 24.3382 9.8588 24.2062 9.8616V13.2856L25.3967 15.1904L23.4125 22.8095L21.8253 15.1904Z" fill="white"/>
</svg>
