<svg width="354" height="59" viewBox="0 0 354 59" fill="none" xmlns="http://www.w3.org/2000/svg">
<path fill-rule="evenodd" clip-rule="evenodd" d="M327.5 0L327.746 0.581669C330.264 6.6983 331.996 15.9263 332.942 28.2655L333.028 29.4315L329.084 34.3385V36.4377C330.055 36.4377 333.028 38.4726 333.028 41.6087C333.028 44.6083 331.066 46.0991 330.353 46.223L330.264 46.2314V56.6235C330.264 57.4174 329.461 57.8701 327.856 57.9814L327.5 58C325.657 57.933 324.736 57.4741 324.736 56.6235V46.2314C324.116 46.2314 321.972 44.7447 321.972 41.6087C321.972 38.4726 324.945 36.4377 325.916 36.4377V34.3385L321.972 29.4315C322.926 16.1022 324.768 6.29159 327.5 0ZM301.021 8.96575L301.422 9.35101C305.177 13.0347 309.254 19.1955 313.651 27.8333L314.124 28.7682L312.549 33.5639L313.179 35.0974C313.929 34.7993 316.836 35.3728 317.777 37.6638C318.718 39.9546 317.508 41.6992 317.029 41.8895C319.215 47.2118 320.436 50.1837 320.691 50.8052C320.928 51.382 320.45 51.9562 319.256 52.5276L318.968 52.6593C317.525 53.1762 316.675 53.124 316.42 52.5025L312.758 43.587C312.279 43.7773 310.176 43.3496 309.235 41.0587C308.294 38.7677 309.981 36.3685 310.731 36.0704L310.101 34.5367L305.581 32.1631C302.319 22.1332 300.799 14.4007 301.021 8.96575ZM353.979 8.96575C354.201 14.4007 352.682 22.1332 349.419 32.1631L344.899 34.5367L344.269 36.0704C345.019 36.3685 346.706 38.7677 345.765 41.0587C344.824 43.3496 342.721 43.7773 342.242 43.587L338.58 52.5025C338.325 53.124 337.475 53.1762 336.032 52.6593L335.744 52.5276C334.55 51.9562 334.072 51.382 334.309 50.8052C334.564 50.1837 335.785 47.2118 337.971 41.8895C337.492 41.6992 336.282 39.9546 337.223 37.6638C338.164 35.3728 341.071 34.7993 341.821 35.0974L342.451 33.5639L340.877 28.7682L341.349 27.8333C345.747 19.1955 349.823 13.0347 353.578 9.35101L353.979 8.96575ZM327.5 38.9688C325.973 38.9688 324.736 40.1861 324.736 41.6876C324.736 43.1891 325.973 44.4064 327.5 44.4064C329.027 44.4064 330.264 43.1891 330.264 41.6876C330.264 40.1861 329.027 38.9688 327.5 38.9688ZM312.714 37.4328C311.535 37.9016 310.944 39.1707 311.394 40.2676C311.845 41.3645 313.166 41.8737 314.346 41.405C315.525 40.9362 316.116 39.6671 315.665 38.5702C315.215 37.4733 313.893 36.9641 312.714 37.4328ZM342.286 37.4328C341.107 36.9641 339.785 37.4733 339.335 38.5702C338.884 39.6671 339.475 40.9362 340.654 41.405C341.834 41.8737 343.155 41.3645 343.606 40.2676C344.056 39.1707 343.465 37.9016 342.286 37.4328Z" fill="#F8F8F8"/>
<path fill-rule="evenodd" clip-rule="evenodd" d="M227.269 18.25C226.15 22.5358 223.35 24.6786 218.872 24.6786H192C193.12 21.4643 194.799 19.8571 197.038 19.8571H217.192C214.953 17.7143 212.714 16.6429 210.474 16.6429H202.077C203.146 14.5974 205.235 13.5282 208.344 13.4352L209.437 13.4197C214.25 13.286 218.8 11.6162 217.192 7H225.59L249.466 28.325C250.145 28.9307 250.181 29.9478 249.548 30.5966C249.522 30.6236 249.495 30.6497 249.466 30.675L225.59 52H217.192C218.872 47.1786 213.833 45.5714 208.795 45.5714C205.589 45.5714 203.402 44.5952 202.237 42.6427L202.077 42.3571H210.474C212.582 42.3571 214.689 41.4081 216.797 39.5099L217.192 39.1429H197.038C194.897 39.1429 193.267 37.6725 192.149 34.7316L192 34.3214H218.872C223.201 34.3214 225.961 36.3238 227.152 40.3286L227.269 40.75L239.026 29.5L227.269 18.25Z" fill="#F8F8F8"/>
<path fill-rule="evenodd" clip-rule="evenodd" d="M120.533 42.3429L127.149 47.6167C127.541 47.9295 127.769 48.4029 127.769 48.9036V58L119.5 51.4076L111.231 58V48.9036C111.231 48.4029 111.459 47.9295 111.851 47.6167L118.467 42.3429C119.071 41.8614 119.929 41.8614 120.533 42.3429ZM120.606 22.7346L135.491 36.084C135.84 36.3965 136.038 36.8418 136.038 37.309V46.4635L120.606 32.623C119.977 32.059 119.023 32.059 118.394 32.623L102.962 46.4635V37.309C102.962 36.8418 103.16 36.3965 103.509 36.084L118.394 22.7346C119.023 22.1704 119.977 22.1704 120.606 22.7346ZM120.669 1.48271L140.031 20.7769C140.652 21.3951 141 22.2334 141 23.1076V34.9269L134.385 29.9828V25.7212C134.385 25.2841 134.21 24.8648 133.9 24.5557L120.669 11.3711C120.024 10.7275 118.976 10.7275 118.331 11.3711L105.1 24.5557C104.79 24.8648 104.615 25.2841 104.615 25.7212V29.9828L98 34.9269V23.1076C98 22.2334 98.3485 21.3951 98.9688 20.7769L118.331 1.48271C118.976 0.839098 120.024 0.839098 120.669 1.48271Z" fill="#F8F8F8"/>
<path fill-rule="evenodd" clip-rule="evenodd" d="M24.5176 0C24.5176 2.49852 24.5465 4.41858 23.3404 6.71584L23.5 6.71404C36.4786 6.71404 47 17.3342 47 30.435C47 38.2908 43.2167 45.2548 37.3888 49.5716C35.4831 51.4224 31.1156 54.5657 24.2855 59C24.7147 57.1312 24.4847 55.5159 23.5955 54.1538L23.5 54.1559C10.5214 54.1559 0 43.5356 0 30.435C0 21.2562 5.16465 13.2953 12.7206 9.35117C18.8496 5.0701 22.7814 1.95293 24.5176 0ZM23.5 16.9435C16.0836 16.9435 10.0715 23.0121 10.0715 30.4982C10.0715 31.9083 10.2847 33.268 10.6805 34.5463C14.7006 37.4345 22.5148 35.7183 23.2749 27.1097C25.0457 34.0253 23.8094 40.947 15.2803 41.2176C17.5509 42.9949 20.403 44.0532 23.5 44.0532C30.9164 44.0532 36.9286 37.9844 36.9286 30.4982C36.9286 23.0121 30.9164 16.9435 23.5 16.9435Z" fill="#F8F8F8"/>
</svg>
