<svg width="356" height="58" viewBox="0 0 356 58" fill="none" xmlns="http://www.w3.org/2000/svg">
<path fill-rule="evenodd" clip-rule="evenodd" d="M0 23.8824L15.25 40.9412L18.6389 34.1176L28.8056 58L18.6389 47.7647L15.25 54.5882L0 23.8824ZM61 23.8824L45.75 54.5882L42.3611 47.7647L32.1944 58L42.3611 34.1176L45.75 40.9412L61 23.8824ZM30.5 0C32.7592 13.6471 36.713 21.0392 42.3611 22.1765L30.5 46.0588L18.6389 22.1765C24.1824 21.0603 28.0937 13.9186 30.3727 0.751731L30.5 0Z" fill="#F8F8F8"/>
<path d="M154.973 18C161.063 18 166 22.909 166 28.9648C166 35.0205 161.063 39.9295 154.973 39.9295C149.51 39.9295 144.974 35.9788 144.099 30.7938L142.108 30.7923V31.8628C142.108 32.3474 141.915 32.8122 141.57 33.1549L134.218 40.4648C133.501 41.1784 132.337 41.1784 131.619 40.4648L124.268 33.1549C123.923 32.8122 123.73 32.3474 123.73 31.8628V30.7923L119.901 30.7938C119.026 35.9788 114.49 39.9295 109.027 39.9295C102.937 39.9295 98 35.0205 98 28.9648C98 22.909 102.937 18 109.027 18C114.491 18 119.027 21.9517 119.902 27.1376L123.73 27.1372V19.9749C123.73 18.9655 124.553 18.1474 125.568 18.1474C125.985 18.1474 126.39 18.2885 126.716 18.5477L131.771 22.5691C132.442 23.103 133.396 23.103 134.067 22.5691L139.122 18.5477C139.915 17.9174 141.071 18.045 141.705 18.8333C141.966 19.1572 142.108 19.5599 142.108 19.9749V27.1372L144.098 27.1376C144.973 21.9517 149.509 18 154.973 18ZM109.027 23.4824C105.982 23.4824 103.514 25.937 103.514 28.9648C103.514 31.9925 105.982 34.4471 109.027 34.4471C111.427 34.4471 113.469 32.9224 114.226 30.7939L109.027 30.7923C108.012 30.7923 107.189 29.974 107.189 28.9648C107.189 27.9556 108.012 27.1372 109.027 27.1372L114.227 27.1374C113.47 25.0081 111.428 23.4824 109.027 23.4824ZM154.973 23.4824C152.572 23.4824 150.53 25.0081 149.773 27.1374L154.973 27.1372C155.988 27.1372 156.811 27.9556 156.811 28.9648C156.811 29.974 155.988 30.7923 154.973 30.7923L149.774 30.7939C150.531 32.9224 152.573 34.4471 154.973 34.4471C158.018 34.4471 160.486 31.9925 160.486 28.9648C160.486 25.937 158.018 23.4824 154.973 23.4824Z" fill="#F8F8F8"/>
<path fill-rule="evenodd" clip-rule="evenodd" d="M258 49.375V56H208V49.375H258ZM230.169 9.79394L226.97 15.6021C219.807 18.0802 214.667 24.8497 214.667 32.8125C214.667 38.0337 216.877 42.7419 220.418 46.0637L213.85 46.0645C211.213 42.3083 209.667 37.7398 209.667 32.8125C209.667 20.9587 218.617 11.1825 230.169 9.79394ZM235.833 9.7941C247.383 11.1835 256.333 20.9594 256.333 32.8125C256.333 37.7398 254.787 42.3083 252.15 46.0645L245.582 46.064C249.123 42.7422 251.333 38.0338 251.333 32.8125C251.333 24.8509 246.194 18.0821 239.033 15.6032L235.833 9.7941ZM233 3C249.569 3 263 16.3476 263 32.8125C263 37.5724 261.877 42.0716 259.881 46.0633L256.098 46.0637C258.368 42.1655 259.667 37.6398 259.667 32.8125C259.667 18.1769 247.728 6.3125 233 6.3125C218.272 6.3125 206.333 18.1769 206.333 32.8125C206.333 37.6398 207.632 42.1655 209.901 46.0637L206.119 46.0633C204.123 42.0716 203 37.5724 203 32.8125C203 16.3476 216.431 3 233 3ZM233 9.625L243 29.5C239.667 28.3958 237.444 28.3958 236.333 29.5C235.222 30.6042 234.111 35.0208 233 42.75C231.889 35.0208 230.778 30.6042 229.667 29.5C228.556 28.3958 226.333 28.3958 223 29.5L233 9.625Z" fill="#F8F8F8"/>
<path fill-rule="evenodd" clip-rule="evenodd" d="M310.616 38.6667C314.873 45.5152 319.663 48.9393 324.985 48.9393V57L323.389 51.3575C318.599 50.5515 313.01 48.9393 308.221 40.0727L310.616 38.6667ZM344.384 38.6667L346.779 40.0727C341.99 48.9393 336.401 50.5515 331.611 51.3575L330.015 57V48.9393C335.337 48.9393 340.127 45.5152 344.384 38.6667ZM327.5 7L334.206 20.3333H330.853L327.5 42L324.147 20.3333H320.794L327.5 7ZM320.794 22L322.471 30.3333H310.735L316.251 31.933C309.129 34.0512 303.378 36.8512 299 40.3333C301.561 36.7688 304.474 33.5543 307.739 30.69L300.676 23.6667L302.125 24.3868C305.644 26.1358 308.386 27.499 310.352 28.4763L310.395 28.4977C313.565 26.0365 317.031 23.8707 320.794 22ZM334.206 22C343.147 26.4445 350.412 32.5555 356 40.3333C351.622 36.8512 345.871 34.0512 338.749 31.933L344.265 30.3333H332.529L334.206 22ZM322.471 2V12L317.441 20.3333H312.412L317.441 12L322.471 2ZM332.529 2L337.559 12L342.588 20.3333H337.559L332.529 12V2Z" fill="#F8F8F8"/>
</svg>
